<svg width="22.500000" height="22.500000" viewBox="0 0 22.5 22.5" fill="none" xmlns="http://www.w3.org/2000/svg" xmlns:xlink="http://www.w3.org/1999/xlink">
	<desc>
			Created with Pixso.
	</desc>
	<defs/>
	<path id="Vector" d="M22.5 16.82C22.5 19.95 19.95 22.5 16.82 22.5L5.67 22.5C2.54 22.5 0 19.95 0 16.82L0 5.67C0 2.54 2.54 0 5.67 0L16.82 0C19.95 0 22.5 2.54 22.5 5.67L22.5 16.82ZM5.67 2.44L16.82 2.44C18.6 2.44 20.05 3.89 20.05 5.67L20.05 16.82C20.05 18.6 18.6 20.05 16.82 20.05L5.67 20.05C3.89 20.05 2.44 18.6 2.44 16.82L2.44 5.67C2.44 3.89 3.89 2.44 5.67 2.44ZM17.23 6.65C16.47 6.65 15.85 6.03 15.85 5.28C15.85 4.52 16.47 3.91 17.23 3.91C17.98 3.91 18.6 4.52 18.6 5.28C18.6 6.03 17.98 6.65 17.23 6.65ZM5.45 11.25C5.45 14.44 8.05 17.04 11.25 17.04C14.44 17.04 17.04 14.44 17.04 11.25C17.04 8.05 14.44 5.45 11.25 5.45C8.05 5.45 5.45 8.05 5.45 11.25ZM11.25 7.9C9.4 7.9 7.9 9.4 7.9 11.24C7.9 13.09 9.4 14.59 11.25 14.59C13.09 14.59 14.59 13.09 14.59 11.24C14.59 9.4 13.09 7.9 11.25 7.9Z" fill="#3A4459" fill-opacity="1.000000" fill-rule="evenodd"/>
</svg>
