<svg width="112.000000" height="28.000000" viewBox="0 0 112 28" fill="none" xmlns="http://www.w3.org/2000/svg" xmlns:xlink="http://www.w3.org/1999/xlink">
	<desc>
			Created with Pixso.
	</desc>
	<defs/>
	<path id="logo" d="M75.94 23.92Q74.37 25.49 72.49 26.45Q69.49 28 65.7 28Q61.9 28 58.9 26.45Q57.02 25.49 55.45 23.92C52.73 21.2 51.38 17.89 51.38 14C51.38 10.1 52.73 6.79 55.45 4.07Q57.02 2.5 58.9 1.54Q61.9 0 65.7 0Q69.49 0 72.49 1.54Q74.37 2.5 75.94 4.07Q77.88 6.01 78.89 8.35Q80.01 10.93 80.01 14Q80.01 17.06 78.89 19.64Q77.88 21.98 75.94 23.92ZM0 27.46L7.37 27.46L9.66 21.76L19.75 21.76L22.04 27.46L29.53 27.46L18.12 0.38L11.4 0.38L0 27.46ZM35.29 27.46L42.28 27.46L42.28 6.61L50.47 6.61L50.47 0.53L27.14 0.53L27.14 6.61L35.29 6.61L35.29 27.46ZM84.37 27.46L91.35 27.46L91.35 11.03L96.36 18.26L100.2 18.26L105.05 11.03L105.05 27.46L112 27.46L112 0.53L105.09 0.53L98.18 10.88L91.31 0.53L84.37 0.53L84.37 27.46ZM60.57 19.46C61.94 20.89 63.65 21.61 65.7 21.61C67.71 21.61 69.41 20.89 70.78 19.46Q71.42 18.78 71.87 17.99Q72.84 16.27 72.84 14Q72.84 11.73 71.87 10L71.87 10Q71.42 9.21 70.78 8.53C69.41 7.1 67.71 6.38 65.7 6.38C63.65 6.38 61.94 7.1 60.57 8.53Q60.04 9.09 59.65 9.73Q58.55 11.53 58.55 14Q58.55 16.46 59.65 18.26Q60.04 18.9 60.57 19.46ZM11.87 16.23L14.7 9.03L17.54 16.23L11.87 16.23Z" fill="#8000FF" fill-opacity="1.000000" fill-rule="evenodd"/>
</svg>
