<svg width="40.000000" height="40.000000" viewBox="0 0 40 40" fill="none" xmlns="http://www.w3.org/2000/svg" xmlns:xlink="http://www.w3.org/1999/xlink">
	<desc>
			Created with Pixso.
	</desc>
	<defs/>
	<rect id="sun 2" width="24.000000" height="24.000000" transform="translate(8.000000 8.000000)" fill="#FFFFFF" fill-opacity="0"/>
	<rect id="Rectangle 162" rx="20.000000" width="40.000000" height="40.000000" fill="#8000FF" fill-opacity="1.000000"/>
	<path id="Vector" d="M28.78 19.87C27.77 22.23 25.43 23.89 22.7 23.88C19.08 23.87 16.12 20.91 16.11 17.29C16.11 14.56 17.76 12.22 20.12 11.21C20.39 11.09 20.31 10.68 20.01 10.68C20.01 10.68 20 10.68 20 10.68C14.85 10.68 10.68 14.85 10.68 20C10.68 23.92 13.11 27.28 16.55 28.65C16.71 28.72 16.91 28.67 17.01 28.51C17.15 28.28 17.42 28.13 17.71 28.15C18.06 28.17 18.36 28.43 18.43 28.78C18.43 28.81 18.44 28.84 18.44 28.87C18.45 29.06 18.59 29.21 18.78 29.23C19.17 29.29 19.58 29.31 20 29.31C25.14 29.31 29.31 25.14 29.31 20C29.31 19.99 29.31 19.99 29.31 19.98C29.31 19.68 28.9 19.6 28.78 19.87Z" fill="#B3BBE6" fill-opacity="1.000000" fill-rule="nonzero"/>
	<path id="Vector" d="M29.31 19.98C29.31 19.68 28.9 19.6 28.78 19.87C28.62 20.26 28.42 20.62 28.19 20.97C27.72 25.48 24.03 29.03 19.46 29.3C19.64 29.31 19.82 29.31 19.99 29.31C25.14 29.31 29.31 25.14 29.31 20C29.31 19.99 29.31 19.99 29.31 19.98Z" fill="#5165BF" fill-opacity="1.000000" fill-rule="nonzero"/>
	<path id="Vector" d="M19.04 11.21C16.68 12.22 15.03 14.56 15.03 17.29C15.04 20.91 18 23.87 21.62 23.88C21.8 23.88 21.99 23.87 22.17 23.86C18.8 23.58 16.12 20.73 16.11 17.29C16.1 14.56 17.76 12.22 20.12 11.21C20.39 11.09 20.31 10.68 20.01 10.68C20.01 10.68 20 10.68 20 10.68C19.69 10.68 19.38 10.69 19.08 10.72C19.25 10.83 19.26 11.11 19.04 11.21Z" fill="#5165BF" fill-opacity="1.000000" fill-rule="nonzero"/>
	<path id="Vector" d="M26.21 30.52L25.78 30.52L25.78 30.09C25.78 29.9 25.63 29.74 25.43 29.74C25.24 29.74 25.08 29.9 25.08 30.09L25.08 30.52L24.65 30.52C24.46 30.52 24.3 30.67 24.3 30.87C24.3 31.06 24.46 31.22 24.65 31.22L25.08 31.22L25.08 31.64C25.08 31.84 25.24 32 25.43 32C25.63 32 25.78 31.84 25.78 31.64L25.78 31.22L26.21 31.22C26.4 31.22 26.56 31.06 26.56 30.87C26.56 30.67 26.4 30.52 26.21 30.52Z" fill="#B2BBE5" fill-opacity="1.000000" fill-rule="nonzero"/>
	<path id="Vector" d="M14.17 22.32C14.17 22.75 13.82 23.1 13.39 23.1C12.97 23.1 12.62 22.75 12.62 22.32C12.62 21.9 12.97 21.55 13.39 21.55C13.82 21.55 14.17 21.9 14.17 22.32Z" fill="#8796DC" fill-opacity="1.000000" fill-rule="evenodd"/>
	<path id="Vector" d="M14.89 18.92C15.06 19.32 14.87 19.77 14.47 19.94C14.08 20.1 13.62 19.91 13.46 19.52C13.29 19.12 13.48 18.66 13.88 18.5C14.27 18.34 14.73 18.52 14.89 18.92Z" fill="#DFE3F2" fill-opacity="1.000000" fill-rule="evenodd"/>
	<path id="Vector" d="M29.7 25.86C29.51 25.86 29.35 26.01 29.35 26.21L29.35 26.98C29.35 27.18 29.51 27.34 29.7 27.34C29.9 27.34 30.05 27.18 30.05 26.98L30.05 26.21C30.05 26.01 29.9 25.86 29.7 25.86Z" fill="#7E8BC8" fill-opacity="1.000000" fill-rule="nonzero"/>
	<path id="Vector" d="M29.7 28.96C29.51 28.96 29.35 29.12 29.35 29.31L29.35 30.09C29.35 30.28 29.51 30.44 29.7 30.44C29.9 30.44 30.05 30.28 30.05 30.09L30.05 29.31C30.05 29.12 29.9 28.96 29.7 28.96Z" fill="#7E8BC8" fill-opacity="1.000000" fill-rule="nonzero"/>
	<path id="Vector" d="M31.64 27.8L30.87 27.8C30.67 27.8 30.52 27.95 30.52 28.15C30.52 28.34 30.67 28.5 30.87 28.5L31.64 28.5C31.84 28.5 31.99 28.34 31.99 28.15C31.99 27.95 31.84 27.8 31.64 27.8Z" fill="#7E8BC8" fill-opacity="1.000000" fill-rule="nonzero"/>
	<path id="Vector" d="M28.54 27.8L27.76 27.8C27.57 27.8 27.41 27.95 27.41 28.15C27.41 28.34 27.57 28.5 27.76 28.5L28.54 28.5C28.73 28.5 28.89 28.34 28.89 28.15C28.89 27.95 28.73 27.8 28.54 27.8Z" fill="#7E8BC8" fill-opacity="1.000000" fill-rule="nonzero"/>
	<path id="Vector" d="M15.34 8.77L14.91 8.77L14.91 8.35C14.91 8.15 14.75 8 14.56 8C14.36 8 14.21 8.15 14.21 8.35L14.21 8.77L13.78 8.77C13.59 8.77 13.43 8.93 13.43 9.12C13.43 9.32 13.59 9.47 13.78 9.47L14.21 9.47L14.21 9.9C14.21 10.09 14.36 10.25 14.56 10.25C14.75 10.25 14.91 10.09 14.91 9.9L14.91 9.47L15.34 9.47C15.53 9.47 15.69 9.32 15.69 9.12C15.69 8.93 15.53 8.77 15.34 8.77Z" fill="#B2BBE5" fill-opacity="1.000000" fill-rule="nonzero"/>
	<path id="Vector" d="M10.29 9.55C10.09 9.55 9.94 9.71 9.94 9.9L9.94 10.68C9.94 10.87 10.09 11.03 10.29 11.03C10.48 11.03 10.64 10.87 10.64 10.68L10.64 9.9C10.64 9.71 10.48 9.55 10.29 9.55Z" fill="#7E8BC8" fill-opacity="1.000000" fill-rule="nonzero"/>
	<path id="Vector" d="M10.29 12.65C10.09 12.65 9.94 12.81 9.94 13.01L9.94 13.78C9.94 13.98 10.09 14.13 10.29 14.13C10.48 14.13 10.64 13.98 10.64 13.78L10.64 13.01C10.64 12.81 10.48 12.65 10.29 12.65Z" fill="#7E8BC8" fill-opacity="1.000000" fill-rule="nonzero"/>
	<path id="Vector" d="M12.23 11.49L11.45 11.49C11.26 11.49 11.1 11.65 11.1 11.84C11.1 12.04 11.26 12.19 11.45 12.19L12.23 12.19C12.42 12.19 12.58 12.04 12.58 11.84C12.58 11.65 12.42 11.49 12.23 11.49Z" fill="#7E8BC8" fill-opacity="1.000000" fill-rule="nonzero"/>
	<path id="Vector" d="M9.12 11.49L8.35 11.49C8.15 11.49 8 11.65 8 11.84C8 12.04 8.15 12.19 8.35 12.19L9.12 12.19C9.32 12.19 9.47 12.04 9.47 11.84C9.47 11.65 9.32 11.49 9.12 11.49Z" fill="#7E8BC8" fill-opacity="1.000000" fill-rule="nonzero"/>
</svg>
