<svg width="46.004089" height="95.660889" viewBox="0 0 46.0041 95.6609" fill="none" xmlns="http://www.w3.org/2000/svg" xmlns:xlink="http://www.w3.org/1999/xlink">
	<desc>
			Created with Pixso.
	</desc>
	<defs>
		<linearGradient x1="45.000061" y1="6.660899" x2="45.000061" y2="94.660896" id="paint_linear_4_4348_0" gradientUnits="userSpaceOnUse">
			<stop stop-color="#8000FF"/>
			<stop offset="1.000000" stop-color="#8000FF" stop-opacity="0.000000"/>
		</linearGradient>
	</defs>
	<path id="Ellipse 3" d="M42.52 7.72Q35.02 8.1 28.49 10.8Q20.89 13.95 14.59 20.25Q8.29 26.55 5.14 34.15Q2 41.75 2 50.66Q2 59.56 5.14 67.16Q8.29 74.76 14.59 81.06Q20.89 87.36 28.49 90.51Q36.09 93.66 45 93.66L45 95.66Q35.68 95.66 27.72 92.36Q19.77 89.07 13.18 82.48Q6.58 75.89 3.29 67.93Q0 59.98 0 50.66Q0 41.34 3.29 33.38Q6.59 25.43 13.18 18.84Q19.77 12.25 27.72 8.95Q34.66 6.08 42.63 5.71L38.63 1.71C38.24 1.31 38.24 0.69 38.63 0.29C39.03 -0.1 39.65 -0.1 40.05 0.29L45.7 5.95C46.1 6.34 46.1 6.97 45.7 7.36L40.05 13.02C39.65 13.42 39.03 13.42 38.63 13.02C38.24 12.62 38.24 12 38.63 11.61L42.52 7.72Z" fill="url(#paint_linear_4_4348_0)" fill-opacity="1.000000" fill-rule="evenodd"/>
</svg>
