<svg width="32.655762" height="24.000000" viewBox="0 0 32.6558 24" fill="none" xmlns="http://www.w3.org/2000/svg" xmlns:xlink="http://www.w3.org/1999/xlink">
	<desc>
			Created with Pixso.
	</desc>
	<defs>
		<clipPath id="clip7_3345">
			<rect id="figma " width="16.090914" height="24.000000" transform="translate(8.125000 0.000000)" fill="white" fill-opacity="0"/>
		</clipPath>
		<clipPath id="clip7_3354">
			<rect id="sketch" width="26.400005" height="24.000000" transform="translate(2.875000 0.000000)" fill="white" fill-opacity="0"/>
		</clipPath>
		<clipPath id="clip7_3356">
			<rect id="logo 1" width="17.907690" height="24.000000" transform="translate(7.000000 0.000000)" fill="white" fill-opacity="0"/>
		</clipPath>
		<clipPath id="clip7_3358">
			<rect id="avacode" width="17.907690" height="24.000000" transform="translate(7.000000 0.000000)" fill="white" fill-opacity="0"/>
		</clipPath>
		<clipPath id="clip7_3361">
			<rect id="photoshop " width="24.000000" height="24.000000" transform="translate(4.000000 0.000000)" fill="white" fill-opacity="0"/>
		</clipPath>
		<clipPath id="clip7_3371">
			<rect id="zeplin " width="30.144009" height="24.000000" transform="translate(1.000000 0.000000)" fill="white" fill-opacity="0"/>
		</clipPath>
		<clipPath id="clip7_3375">
			<rect id="invision " width="24.000000" height="24.000000" transform="translate(4.000000 0.000000)" fill="white" fill-opacity="0"/>
		</clipPath>
		<clipPath id="clip7_3389">
			<rect id="html " width="16.956522" height="24.000000" transform="translate(7.875000 0.000000)" fill="white" fill-opacity="0"/>
		</clipPath>
		<clipPath id="clip7_3395">
			<rect id="css-3 " width="17.174314" height="24.000000" transform="translate(7.875000 0.000000)" fill="white" fill-opacity="0"/>
		</clipPath>
		<clipPath id="clip7_3398">
			<rect id="javascript " width="24.000000" height="24.000000" transform="translate(4.500000 0.000000)" fill="white" fill-opacity="0"/>
		</clipPath>
		<clipPath id="clip7_3400">
			<rect id="sass " width="32.655739" height="24.000000" fill="white" fill-opacity="0"/>
		</clipPath>
		<clipPath id="clip7_3403">
			<rect id="git-icon " width="24.000000" height="24.000000" transform="translate(4.500000 0.000000)" fill="white" fill-opacity="0"/>
		</clipPath>
		<clipPath id="clip7_3410">
			<rect id="gulp " width="10.871794" height="24.000000" transform="translate(10.875000 0.000000)" fill="white" fill-opacity="0"/>
		</clipPath>
		<clipPath id="clip7_3412">
			<rect id="wordpress logo" width="24.000000" height="24.000000" transform="translate(4.500000 0.000000)" fill="white" fill-opacity="0"/>
		</clipPath>
		<clipPath id="clip7_3415">
			<rect id="bitrix-1 logo" width="23.887417" height="24.000000" transform="translate(4.488037 0.000000)" fill="white" fill-opacity="0"/>
		</clipPath>
		<clipPath id="clip7_3417">
			<rect id="codeigniter-plain logo" width="24.000000" height="24.000000" transform="translate(4.500000 0.000000)" fill="white" fill-opacity="0"/>
		</clipPath>
	</defs>
	<rect id="javascript " width="24.000000" height="24.000000" transform="translate(4.500000 0.000000)" fill="#FFFFFF" fill-opacity="0"/>
	<g clip-path="url(#clip7_3398)">
		<path id="Vector" d="M4.76 0.26L28.23 0.26L28.23 23.73L4.76 23.73L4.76 0.26Z" fill="#F0DB4F" fill-opacity="1.000000" fill-rule="nonzero"/>
		<path id="Vector" d="M26.31 18.13C26.14 17.06 25.44 16.16 23.37 15.32C22.65 14.99 21.85 14.76 21.61 14.21C21.53 13.9 21.52 13.72 21.57 13.53C21.72 12.9 22.47 12.71 23.06 12.89C23.44 13.01 23.8 13.31 24.01 13.77C25.02 13.12 25.02 13.12 25.73 12.67C25.47 12.27 25.33 12.08 25.16 11.91C24.55 11.23 23.72 10.88 22.4 10.91L21.71 11C21.04 11.17 20.41 11.51 20.04 11.98C18.93 13.24 19.25 15.45 20.6 16.35C21.93 17.35 23.89 17.58 24.14 18.52C24.38 19.66 23.3 20.03 22.22 19.9C21.42 19.74 20.98 19.33 20.5 18.6C19.63 19.11 19.63 19.11 18.72 19.63C18.94 20.09 19.16 20.31 19.52 20.71C21.22 22.44 25.48 22.35 26.24 19.74C26.27 19.65 26.48 19.05 26.31 18.13ZM17.52 11.05L15.32 11.05L15.31 16.72C15.31 17.93 15.38 19.04 15.18 19.38C14.86 20.04 14.03 19.96 13.65 19.83C13.26 19.64 13.07 19.37 12.84 18.99C12.78 18.88 12.73 18.8 12.71 18.79L10.93 19.88C11.22 20.49 11.66 21.02 12.22 21.36C13.06 21.87 14.18 22.02 15.36 21.75C16.12 21.53 16.79 21.06 17.13 20.36C17.63 19.44 17.52 18.33 17.52 17.09C17.53 15.08 17.52 13.07 17.52 11.05Z" fill="#323330" fill-opacity="1.000000" fill-rule="nonzero"/>
	</g>
</svg>
