<svg width="32.655762" height="24.000000" viewBox="0 0 32.6558 24" fill="none" xmlns="http://www.w3.org/2000/svg" xmlns:xlink="http://www.w3.org/1999/xlink">
	<desc>
			Created with Pixso.
	</desc>
	<defs>
		<clipPath id="clip7_1968">
			<rect id="figma " width="16.090914" height="24.000000" transform="translate(8.125000 0.000000)" fill="white" fill-opacity="0"/>
		</clipPath>
		<clipPath id="clip7_1977">
			<rect id="sketch" width="26.400005" height="24.000000" transform="translate(2.875000 0.000000)" fill="white" fill-opacity="0"/>
		</clipPath>
		<clipPath id="clip7_1979">
			<rect id="logo 1" width="17.907690" height="24.000000" transform="translate(7.000000 0.000000)" fill="white" fill-opacity="0"/>
		</clipPath>
		<clipPath id="clip7_1981">
			<rect id="avacode" width="17.907690" height="24.000000" transform="translate(7.000000 0.000000)" fill="white" fill-opacity="0"/>
		</clipPath>
		<clipPath id="clip7_1984">
			<rect id="photoshop " width="24.000000" height="24.000000" transform="translate(4.000000 0.000000)" fill="white" fill-opacity="0"/>
		</clipPath>
		<clipPath id="clip7_1994">
			<rect id="zeplin " width="30.144009" height="24.000000" transform="translate(1.000000 0.000000)" fill="white" fill-opacity="0"/>
		</clipPath>
		<clipPath id="clip7_1998">
			<rect id="invision " width="24.000000" height="24.000000" transform="translate(4.000000 0.000000)" fill="white" fill-opacity="0"/>
		</clipPath>
		<clipPath id="clip7_2012">
			<rect id="html " width="16.956522" height="24.000000" transform="translate(7.875000 0.000000)" fill="white" fill-opacity="0"/>
		</clipPath>
		<clipPath id="clip7_2018">
			<rect id="css-3 " width="17.174314" height="24.000000" transform="translate(7.875000 0.000000)" fill="white" fill-opacity="0"/>
		</clipPath>
		<clipPath id="clip7_2021">
			<rect id="javascript " width="24.000000" height="24.000000" transform="translate(4.500000 0.000000)" fill="white" fill-opacity="0"/>
		</clipPath>
		<clipPath id="clip7_2023">
			<rect id="sass " width="32.655739" height="24.000000" fill="white" fill-opacity="0"/>
		</clipPath>
		<clipPath id="clip7_2026">
			<rect id="git-icon " width="24.000000" height="24.000000" transform="translate(4.500000 0.000000)" fill="white" fill-opacity="0"/>
		</clipPath>
		<clipPath id="clip7_2033">
			<rect id="gulp " width="10.871794" height="24.000000" transform="translate(10.875000 0.000000)" fill="white" fill-opacity="0"/>
		</clipPath>
		<clipPath id="clip7_2035">
			<rect id="wordpress logo" width="24.000000" height="24.000000" transform="translate(4.500000 0.000000)" fill="white" fill-opacity="0"/>
		</clipPath>
		<clipPath id="clip7_2038">
			<rect id="bitrix-1 logo" width="23.887417" height="24.000000" transform="translate(4.488037 0.000000)" fill="white" fill-opacity="0"/>
		</clipPath>
		<clipPath id="clip7_2040">
			<rect id="codeigniter-plain logo" width="24.000000" height="24.000000" transform="translate(4.500000 0.000000)" fill="white" fill-opacity="0"/>
		</clipPath>
	</defs>
	<rect id="sass " width="32.655739" height="24.000000" fill="#FFFFFF" fill-opacity="0"/>
	<g clip-path="url(#clip7_2023)">
		<path id="Vector" d="M27.24 13.81C26.14 13.82 25.18 14.08 24.38 14.48C24.09 13.89 23.79 13.37 23.74 12.98C23.68 12.53 23.61 12.26 23.68 11.72C23.75 11.19 24.06 10.42 24.06 10.36C24.05 10.31 23.99 10.03 23.36 10.03C22.72 10.02 22.17 10.15 22.11 10.32C22.05 10.49 21.92 10.87 21.84 11.27C21.73 11.85 20.58 13.93 19.91 15.02C19.7 14.6 19.51 14.22 19.47 13.93C19.42 13.48 19.35 13.2 19.42 12.67C19.49 12.13 19.8 11.37 19.79 11.31C19.78 11.25 19.72 10.98 19.09 10.97C18.45 10.96 17.9 11.09 17.84 11.26C17.78 11.43 17.71 11.83 17.58 12.21C17.44 12.6 15.9 16.07 15.5 16.97C15.29 17.43 15.11 17.8 14.99 18.05C14.99 18.05 14.98 18.06 14.96 18.09C14.85 18.31 14.79 18.43 14.79 18.43C14.79 18.43 14.79 18.43 14.79 18.43C14.7 18.59 14.61 18.73 14.56 18.73C14.53 18.73 14.47 18.31 14.58 17.74C14.81 16.54 15.36 14.66 15.35 14.6C15.35 14.56 15.45 14.23 14.99 14.07C14.54 13.9 14.38 14.18 14.34 14.18C14.3 14.18 14.27 14.28 14.27 14.28C14.27 14.28 14.77 12.17 13.31 12.17C12.4 12.17 11.14 13.17 10.52 14.08C10.13 14.3 9.29 14.76 8.4 15.25C8.06 15.45 7.71 15.64 7.38 15.82C7.35 15.8 7.33 15.77 7.31 15.74C5.54 13.84 2.28 12.49 2.42 9.93C2.47 9 2.79 6.55 8.69 3.58C13.54 1.16 17.41 1.83 18.08 3.32C19.04 5.44 16.01 9.38 10.99 9.95C9.07 10.17 8.07 9.42 7.82 9.14C7.55 8.85 7.51 8.83 7.41 8.89C7.25 8.98 7.35 9.24 7.41 9.39C7.56 9.79 8.18 10.49 9.22 10.83C10.15 11.13 12.39 11.3 15.11 10.24C18.15 9.05 20.52 5.75 19.83 2.98C19.13 0.17 14.51 -0.76 10.15 0.81C7.55 1.74 4.74 3.21 2.71 5.12C0.31 7.4 -0.07 9.37 0.08 10.2C0.64 13.14 4.65 15.05 6.25 16.47C6.17 16.51 6.1 16.55 6.03 16.59C5.23 16.99 2.18 18.61 1.41 20.31C0.55 22.25 1.55 23.64 2.22 23.82C4.27 24.4 6.39 23.36 7.53 21.65C8.66 19.94 8.53 17.71 8 16.69C8 16.68 7.99 16.67 7.98 16.65C8.19 16.53 8.4 16.4 8.61 16.28C9.02 16.04 9.42 15.81 9.77 15.62C9.57 16.16 9.43 16.81 9.36 17.74C9.27 18.84 9.71 20.26 10.3 20.82C10.56 21.07 10.86 21.07 11.06 21.07C11.74 21.07 12.04 20.5 12.38 19.82C12.8 19 13.17 18.04 13.17 18.04C13.17 18.04 12.71 20.63 13.98 20.63C14.44 20.63 14.91 20.03 15.11 19.72L15.11 19.73C15.11 19.73 15.12 19.71 15.15 19.67C15.19 19.59 15.22 19.54 15.22 19.54L15.22 19.53C15.41 19.21 15.82 18.47 16.44 17.24C17.24 15.65 18 13.67 18 13.67C18 13.67 18.07 14.15 18.31 14.96C18.45 15.43 18.74 15.95 18.97 16.45C18.78 16.71 18.67 16.86 18.67 16.86C18.67 16.86 18.67 16.86 18.67 16.86C18.52 17.06 18.36 17.28 18.18 17.49C17.55 18.25 16.8 19.11 16.7 19.36C16.58 19.66 16.61 19.88 16.84 20.05C17 20.18 17.3 20.2 17.61 20.18C18.18 20.14 18.57 20 18.77 19.91C19.08 19.8 19.43 19.63 19.77 19.38C20.38 18.92 20.76 18.26 20.73 17.39C20.71 16.92 20.55 16.44 20.36 15.99C20.42 15.91 20.47 15.83 20.53 15.74C21.5 14.3 22.26 12.73 22.26 12.73C22.26 12.73 22.33 13.21 22.57 14.01C22.68 14.42 22.92 14.86 23.12 15.3C22.21 16.05 21.64 16.92 21.44 17.49C21.08 18.55 21.36 19.03 21.9 19.14C22.14 19.2 22.48 19.08 22.74 18.97C23.06 18.86 23.44 18.68 23.81 18.41C24.42 17.95 25.02 17.31 24.98 16.44C24.96 16.05 24.86 15.66 24.72 15.28C25.5 14.95 26.5 14.77 27.78 14.92C30.52 15.25 31.07 16.98 30.96 17.71C30.86 18.44 30.28 18.83 30.09 18.96C29.9 19.08 29.84 19.12 29.86 19.21C29.88 19.34 29.97 19.33 30.13 19.31C30.36 19.27 31.57 18.72 31.63 17.38C31.71 15.66 30.1 13.79 27.24 13.81ZM6.06 21.03C5.15 22.03 3.88 22.41 3.33 22.09C2.75 21.74 2.98 20.26 4.1 19.2C4.78 18.55 5.65 17.95 6.24 17.59C6.37 17.5 6.56 17.39 6.8 17.24C6.84 17.22 6.86 17.21 6.86 17.21C6.91 17.18 6.96 17.15 7 17.12C7.41 18.64 7.02 19.97 6.06 21.03ZM12.7 16.47C12.38 17.25 11.72 19.25 11.31 19.14C10.97 19.04 10.75 17.53 11.24 16.03C11.49 15.28 12.02 14.38 12.32 14.03C12.82 13.47 13.37 13.28 13.5 13.51C13.67 13.81 12.89 15.98 12.7 16.47ZM18.17 19.11C18.04 19.18 17.91 19.23 17.85 19.2C17.81 19.17 17.91 19.08 17.91 19.08C17.91 19.08 18.6 18.33 18.87 17.99C19.02 17.8 19.21 17.56 19.4 17.3L19.4 17.38C19.4 18.27 18.55 18.87 18.17 19.11ZM22.39 18.14C22.29 18.07 22.31 17.84 22.64 17.11C22.77 16.82 23.07 16.34 23.58 15.88C23.64 16.07 23.68 16.25 23.67 16.42C23.67 17.55 22.87 17.97 22.39 18.14Z" fill="#CD6799" fill-opacity="1.000000" fill-rule="nonzero"/>
	</g>
</svg>
