<svg width="32.655762" height="24.000000" viewBox="0 0 32.6558 24" fill="none" xmlns="http://www.w3.org/2000/svg" xmlns:xlink="http://www.w3.org/1999/xlink">
	<desc>
			Created with Pixso.
	</desc>
	<defs>
		<clipPath id="clip7_2697">
			<rect id="figma " width="16.090914" height="24.000000" transform="translate(8.125000 0.000000)" fill="white" fill-opacity="0"/>
		</clipPath>
		<clipPath id="clip7_2706">
			<rect id="sketch" width="26.400005" height="24.000000" transform="translate(2.875000 0.000000)" fill="white" fill-opacity="0"/>
		</clipPath>
		<clipPath id="clip7_2708">
			<rect id="logo 1" width="17.907690" height="24.000000" transform="translate(7.000000 0.000000)" fill="white" fill-opacity="0"/>
		</clipPath>
		<clipPath id="clip7_2710">
			<rect id="avacode" width="17.907690" height="24.000000" transform="translate(7.000000 0.000000)" fill="white" fill-opacity="0"/>
		</clipPath>
		<clipPath id="clip7_2713">
			<rect id="photoshop " width="24.000000" height="24.000000" transform="translate(4.000000 0.000000)" fill="white" fill-opacity="0"/>
		</clipPath>
		<clipPath id="clip7_2723">
			<rect id="zeplin " width="30.144009" height="24.000000" transform="translate(1.000000 0.000000)" fill="white" fill-opacity="0"/>
		</clipPath>
		<clipPath id="clip7_2727">
			<rect id="invision " width="24.000000" height="24.000000" transform="translate(4.000000 0.000000)" fill="white" fill-opacity="0"/>
		</clipPath>
		<clipPath id="clip7_2741">
			<rect id="html " width="16.956522" height="24.000000" transform="translate(7.875000 0.000000)" fill="white" fill-opacity="0"/>
		</clipPath>
		<clipPath id="clip7_2747">
			<rect id="css-3 " width="17.174314" height="24.000000" transform="translate(7.875000 0.000000)" fill="white" fill-opacity="0"/>
		</clipPath>
		<clipPath id="clip7_2750">
			<rect id="javascript " width="24.000000" height="24.000000" transform="translate(4.500000 0.000000)" fill="white" fill-opacity="0"/>
		</clipPath>
		<clipPath id="clip7_2752">
			<rect id="sass " width="32.655739" height="24.000000" fill="white" fill-opacity="0"/>
		</clipPath>
		<clipPath id="clip7_2755">
			<rect id="git-icon " width="24.000000" height="24.000000" transform="translate(4.500000 0.000000)" fill="white" fill-opacity="0"/>
		</clipPath>
		<clipPath id="clip7_2762">
			<rect id="gulp " width="10.871794" height="24.000000" transform="translate(10.875000 0.000000)" fill="white" fill-opacity="0"/>
		</clipPath>
		<clipPath id="clip7_2764">
			<rect id="wordpress logo" width="24.000000" height="24.000000" transform="translate(4.500000 0.000000)" fill="white" fill-opacity="0"/>
		</clipPath>
		<clipPath id="clip7_2767">
			<rect id="bitrix-1 logo" width="23.887417" height="24.000000" transform="translate(4.488037 0.000000)" fill="white" fill-opacity="0"/>
		</clipPath>
		<clipPath id="clip7_2769">
			<rect id="codeigniter-plain logo" width="24.000000" height="24.000000" transform="translate(4.500000 0.000000)" fill="white" fill-opacity="0"/>
		</clipPath>
	</defs>
	<rect id="sketch" width="26.400005" height="24.000000" transform="translate(2.875000 0.000000)" fill="#FFFFFF" fill-opacity="0"/>
	<g clip-path="url(#clip7_2706)">
		<path id="Vector" d="M8.23 8.62L16.04 23.97L2.92 8.62L8.23 8.62Z" fill="#EA6C00" fill-opacity="1.000000" fill-rule="evenodd"/>
		<path id="Vector" d="M23.85 8.62L16.04 23.97L29.17 8.62L23.85 8.62Z" fill="#EA6C00" fill-opacity="1.000000" fill-rule="evenodd"/>
		<path id="Vector" d="M8.23 8.62L23.85 8.62L16.04 23.97L8.23 8.62Z" fill="#FDAD00" fill-opacity="1.000000" fill-rule="evenodd"/>
		<path id="Vector" d="M16.04 0.11L8.64 0.9L8.23 8.62L16.04 0.11Z" fill="#FDD231" fill-opacity="1.000000" fill-rule="evenodd"/>
		<path id="Vector" d="M16.04 0.11L23.44 0.9L23.85 8.62L16.04 0.11Z" fill="#FDD231" fill-opacity="1.000000" fill-rule="evenodd"/>
		<path id="Vector" d="M29.17 8.62L23.44 0.9L23.85 8.62L29.17 8.62Z" fill="#FDAD00" fill-opacity="1.000000" fill-rule="evenodd"/>
		<path id="Vector" d="M2.92 8.62L8.65 0.9L8.23 8.62L2.92 8.62Z" fill="#FDAD00" fill-opacity="1.000000" fill-rule="evenodd"/>
		<path id="Vector" d="M16.04 0.11L8.23 8.62L23.85 8.62L16.04 0.11Z" fill="#FEEEB7" fill-opacity="1.000000" fill-rule="evenodd"/>
	</g>
</svg>
