<svg width="32.655762" height="24.000000" viewBox="0 0 32.6558 24" fill="none" xmlns="http://www.w3.org/2000/svg" xmlns:xlink="http://www.w3.org/1999/xlink">
	<desc>
			Created with Pixso.
	</desc>
	<defs>
		<clipPath id="clip7_4237">
			<rect id="figma " width="16.090914" height="24.000000" transform="translate(8.125000 0.000000)" fill="white" fill-opacity="0"/>
		</clipPath>
		<clipPath id="clip7_4246">
			<rect id="sketch" width="26.400005" height="24.000000" transform="translate(2.875000 0.000000)" fill="white" fill-opacity="0"/>
		</clipPath>
		<clipPath id="clip7_4248">
			<rect id="logo 1" width="17.907690" height="24.000000" transform="translate(7.000000 0.000000)" fill="white" fill-opacity="0"/>
		</clipPath>
		<clipPath id="clip7_4250">
			<rect id="avacode" width="17.907690" height="24.000000" transform="translate(7.000000 0.000000)" fill="white" fill-opacity="0"/>
		</clipPath>
		<clipPath id="clip7_4253">
			<rect id="photoshop " width="24.000000" height="24.000000" transform="translate(4.000000 0.000000)" fill="white" fill-opacity="0"/>
		</clipPath>
		<clipPath id="clip7_4263">
			<rect id="zeplin " width="30.144009" height="24.000000" transform="translate(1.000000 0.000000)" fill="white" fill-opacity="0"/>
		</clipPath>
		<clipPath id="clip7_4267">
			<rect id="invision " width="24.000000" height="24.000000" transform="translate(4.000000 0.000000)" fill="white" fill-opacity="0"/>
		</clipPath>
		<clipPath id="clip7_4281">
			<rect id="html " width="16.956522" height="24.000000" transform="translate(7.875000 0.000000)" fill="white" fill-opacity="0"/>
		</clipPath>
		<clipPath id="clip7_4287">
			<rect id="css-3 " width="17.174314" height="24.000000" transform="translate(7.875000 0.000000)" fill="white" fill-opacity="0"/>
		</clipPath>
		<clipPath id="clip7_4290">
			<rect id="javascript " width="24.000000" height="24.000000" transform="translate(4.500000 0.000000)" fill="white" fill-opacity="0"/>
		</clipPath>
		<clipPath id="clip7_4292">
			<rect id="sass " width="32.655739" height="24.000000" fill="white" fill-opacity="0"/>
		</clipPath>
		<clipPath id="clip7_4295">
			<rect id="git-icon " width="24.000000" height="24.000000" transform="translate(4.500000 0.000000)" fill="white" fill-opacity="0"/>
		</clipPath>
		<clipPath id="clip7_4302">
			<rect id="gulp " width="10.871794" height="24.000000" transform="translate(10.875000 0.000000)" fill="white" fill-opacity="0"/>
		</clipPath>
		<clipPath id="clip7_4304">
			<rect id="wordpress logo" width="24.000000" height="24.000000" transform="translate(4.500000 0.000000)" fill="white" fill-opacity="0"/>
		</clipPath>
		<clipPath id="clip7_4307">
			<rect id="bitrix-1 logo" width="23.887417" height="24.000000" transform="translate(4.488037 0.000000)" fill="white" fill-opacity="0"/>
		</clipPath>
		<clipPath id="clip7_4309">
			<rect id="codeigniter-plain logo" width="24.000000" height="24.000000" transform="translate(4.500000 0.000000)" fill="white" fill-opacity="0"/>
		</clipPath>
	</defs>
	<rect id="wordpress logo" width="24.000000" height="24.000000" transform="translate(4.500000 0.000000)" fill="#FFFFFF" fill-opacity="0"/>
	<g clip-path="url(#clip7_4304)">
		<path id="Vector" d="M6.2 11.99C6.2 16.07 8.57 19.59 12 21.26L7.09 7.81C6.5 9.12 6.2 10.55 6.2 11.99ZM23.44 11.48C23.44 12.36 23.11 13.38 22.66 14.8L21.63 18.23L17.91 7.17C18.53 7.14 19.09 7.07 19.09 7.07C19.65 7 19.58 6.19 19.03 6.22C19.03 6.22 17.36 6.35 16.28 6.35C15.27 6.35 13.57 6.22 13.57 6.22C13.02 6.19 12.95 7.04 13.51 7.07C13.51 7.07 14.03 7.14 14.59 7.17L16.19 11.56L13.94 18.32L10.19 7.17C10.81 7.14 11.37 7.07 11.37 7.07C11.92 7 11.85 6.19 11.3 6.22C11.3 6.22 9.63 6.35 8.56 6.35C8.36 6.35 8.14 6.35 7.89 6.34C9.73 3.55 12.9 1.7 16.5 1.7C19.18 1.7 21.62 2.73 23.45 4.4C23.4 4.4 23.36 4.39 23.31 4.39C22.3 4.39 21.58 5.28 21.58 6.22C21.58 7.07 22.07 7.79 22.6 8.64C22.99 9.32 23.44 10.2 23.44 11.48ZM16.68 12.9L19.84 21.56C19.86 21.61 19.88 21.66 19.91 21.71C18.84 22.08 17.69 22.29 16.5 22.29C15.51 22.29 14.53 22.15 13.59 21.87L16.68 12.9ZM25.53 7.06C26.36 8.57 26.79 10.27 26.79 11.99C26.79 15.79 24.73 19.11 21.67 20.89L24.81 11.8C25.4 10.33 25.6 9.16 25.6 8.11C25.6 7.74 25.57 7.38 25.53 7.06ZM16.5 0C23.11 0 28.5 5.38 28.5 11.99C28.5 18.61 23.11 24 16.5 24C9.88 24 4.5 18.61 4.5 11.99C4.5 5.38 9.88 0 16.5 0ZM16.5 23.44C22.81 23.44 27.94 18.31 27.94 11.99C27.94 5.68 22.81 0.55 16.5 0.55C10.18 0.55 5.05 5.68 5.05 11.99C5.05 18.31 10.18 23.44 16.5 23.44Z" fill="#00749A" fill-opacity="1.000000" fill-rule="nonzero"/>
	</g>
</svg>
