<svg width="32.655762" height="24.000000" viewBox="0 0 32.6558 24" fill="none" xmlns="http://www.w3.org/2000/svg" xmlns:xlink="http://www.w3.org/1999/xlink">
	<desc>
			Created with Pixso.
	</desc>
	<defs>
		<clipPath id="clip7_3589">
			<rect id="figma " width="16.090914" height="24.000000" transform="translate(8.125000 0.000000)" fill="white" fill-opacity="0"/>
		</clipPath>
		<clipPath id="clip7_3598">
			<rect id="sketch" width="26.400005" height="24.000000" transform="translate(2.875000 0.000000)" fill="white" fill-opacity="0"/>
		</clipPath>
		<clipPath id="clip7_3600">
			<rect id="logo 1" width="17.907690" height="24.000000" transform="translate(7.000000 0.000000)" fill="white" fill-opacity="0"/>
		</clipPath>
		<clipPath id="clip7_3602">
			<rect id="avacode" width="17.907690" height="24.000000" transform="translate(7.000000 0.000000)" fill="white" fill-opacity="0"/>
		</clipPath>
		<clipPath id="clip7_3605">
			<rect id="photoshop " width="24.000000" height="24.000000" transform="translate(4.000000 0.000000)" fill="white" fill-opacity="0"/>
		</clipPath>
		<clipPath id="clip7_3615">
			<rect id="zeplin " width="30.144009" height="24.000000" transform="translate(1.000000 0.000000)" fill="white" fill-opacity="0"/>
		</clipPath>
		<clipPath id="clip7_3619">
			<rect id="invision " width="24.000000" height="24.000000" transform="translate(4.000000 0.000000)" fill="white" fill-opacity="0"/>
		</clipPath>
		<clipPath id="clip7_3633">
			<rect id="html " width="16.956522" height="24.000000" transform="translate(7.875000 0.000000)" fill="white" fill-opacity="0"/>
		</clipPath>
		<clipPath id="clip7_3639">
			<rect id="css-3 " width="17.174314" height="24.000000" transform="translate(7.875000 0.000000)" fill="white" fill-opacity="0"/>
		</clipPath>
		<clipPath id="clip7_3642">
			<rect id="javascript " width="24.000000" height="24.000000" transform="translate(4.500000 0.000000)" fill="white" fill-opacity="0"/>
		</clipPath>
		<clipPath id="clip7_3644">
			<rect id="sass " width="32.655739" height="24.000000" fill="white" fill-opacity="0"/>
		</clipPath>
		<clipPath id="clip7_3647">
			<rect id="git-icon " width="24.000000" height="24.000000" transform="translate(4.500000 0.000000)" fill="white" fill-opacity="0"/>
		</clipPath>
		<clipPath id="clip7_3654">
			<rect id="gulp " width="10.871794" height="24.000000" transform="translate(10.875000 0.000000)" fill="white" fill-opacity="0"/>
		</clipPath>
		<clipPath id="clip7_3656">
			<rect id="wordpress logo" width="24.000000" height="24.000000" transform="translate(4.500000 0.000000)" fill="white" fill-opacity="0"/>
		</clipPath>
		<clipPath id="clip7_3659">
			<rect id="bitrix-1 logo" width="23.887417" height="24.000000" transform="translate(4.488037 0.000000)" fill="white" fill-opacity="0"/>
		</clipPath>
		<clipPath id="clip7_3661">
			<rect id="codeigniter-plain logo" width="24.000000" height="24.000000" transform="translate(4.500000 0.000000)" fill="white" fill-opacity="0"/>
		</clipPath>
	</defs>
	<rect id="codeigniter-plain logo" width="24.000000" height="24.000000" transform="translate(4.500000 0.000000)" fill="#FFFFFF" fill-opacity="0"/>
	<g clip-path="url(#clip7_3661)">
		<path id="Vector" d="M21.32 9.16L21.17 9.08C21.25 9.26 21.27 9.41 21.27 9.55C21.3 9.44 21.31 9.33 21.32 9.21C21.32 9.36 21.3 9.5 21.27 9.62L21.27 9.55C21.23 9.73 21.16 9.89 21.07 10.03L21.11 9.99C20.57 10.89 19.1 11.09 18.37 10.15C17.21 8.66 18.4 7.04 18.56 5.45C18.77 3.47 17.53 1.54 15.98 0.38C16.83 1.76 15.71 3.58 14.81 4.6C13.94 5.59 12.88 6.41 11.92 7.31C10.89 8.27 9.9 9.29 9.05 10.42C7.35 12.68 6.31 15.53 7.08 18.35C7.84 21.18 10.29 22.97 13.05 23.61C11.65 23.01 10.35 21.48 10.35 19.91C10.34 18.2 11.42 16.75 12.77 15.8C12.61 16.41 12.52 16.97 12.92 17.52C13.29 18.03 13.95 18.27 14.56 18.14C16 17.82 16.07 16.24 15.21 15.32C14.37 14.41 13.55 13.38 13.88 12.05C14.04 11.39 14.44 10.77 14.96 10.32C14.56 11.36 15.69 12.39 16.43 12.9C17.72 13.79 19.14 14.47 20.32 15.51C21.57 16.6 22.49 18.08 22.3 19.8C22.1 21.66 20.62 22.96 18.96 23.61C22.47 22.84 26.09 20.12 26.17 16.23C26.23 13.03 24.03 10.57 21.32 9.16Z" fill="#EE4323" fill-opacity="1.000000" fill-rule="nonzero"/>
	</g>
</svg>
