<svg width="32.655762" height="24.000000" viewBox="0 0 32.6558 24" fill="none" xmlns="http://www.w3.org/2000/svg" xmlns:xlink="http://www.w3.org/1999/xlink">
	<desc>
			Created with Pixso.
	</desc>
	<defs>
		<clipPath id="clip7_2292">
			<rect id="figma " width="16.090914" height="24.000000" transform="translate(8.125000 0.000000)" fill="white" fill-opacity="0"/>
		</clipPath>
		<clipPath id="clip7_2301">
			<rect id="sketch" width="26.400005" height="24.000000" transform="translate(2.875000 0.000000)" fill="white" fill-opacity="0"/>
		</clipPath>
		<clipPath id="clip7_2303">
			<rect id="logo 1" width="17.907690" height="24.000000" transform="translate(7.000000 0.000000)" fill="white" fill-opacity="0"/>
		</clipPath>
		<clipPath id="clip7_2305">
			<rect id="avacode" width="17.907690" height="24.000000" transform="translate(7.000000 0.000000)" fill="white" fill-opacity="0"/>
		</clipPath>
		<clipPath id="clip7_2308">
			<rect id="photoshop " width="24.000000" height="24.000000" transform="translate(4.000000 0.000000)" fill="white" fill-opacity="0"/>
		</clipPath>
		<clipPath id="clip7_2318">
			<rect id="zeplin " width="30.144009" height="24.000000" transform="translate(1.000000 0.000000)" fill="white" fill-opacity="0"/>
		</clipPath>
		<clipPath id="clip7_2322">
			<rect id="invision " width="24.000000" height="24.000000" transform="translate(4.000000 0.000000)" fill="white" fill-opacity="0"/>
		</clipPath>
		<clipPath id="clip7_2336">
			<rect id="html " width="16.956522" height="24.000000" transform="translate(7.875000 0.000000)" fill="white" fill-opacity="0"/>
		</clipPath>
		<clipPath id="clip7_2342">
			<rect id="css-3 " width="17.174314" height="24.000000" transform="translate(7.875000 0.000000)" fill="white" fill-opacity="0"/>
		</clipPath>
		<clipPath id="clip7_2345">
			<rect id="javascript " width="24.000000" height="24.000000" transform="translate(4.500000 0.000000)" fill="white" fill-opacity="0"/>
		</clipPath>
		<clipPath id="clip7_2347">
			<rect id="sass " width="32.655739" height="24.000000" fill="white" fill-opacity="0"/>
		</clipPath>
		<clipPath id="clip7_2350">
			<rect id="git-icon " width="24.000000" height="24.000000" transform="translate(4.500000 0.000000)" fill="white" fill-opacity="0"/>
		</clipPath>
		<clipPath id="clip7_2357">
			<rect id="gulp " width="10.871794" height="24.000000" transform="translate(10.875000 0.000000)" fill="white" fill-opacity="0"/>
		</clipPath>
		<clipPath id="clip7_2359">
			<rect id="wordpress logo" width="24.000000" height="24.000000" transform="translate(4.500000 0.000000)" fill="white" fill-opacity="0"/>
		</clipPath>
		<clipPath id="clip7_2362">
			<rect id="bitrix-1 logo" width="23.887417" height="24.000000" transform="translate(4.488037 0.000000)" fill="white" fill-opacity="0"/>
		</clipPath>
		<clipPath id="clip7_2364">
			<rect id="codeigniter-plain logo" width="24.000000" height="24.000000" transform="translate(4.500000 0.000000)" fill="white" fill-opacity="0"/>
		</clipPath>
	</defs>
	<rect id="gulp " width="10.871794" height="24.000000" transform="translate(10.875000 0.000000)" fill="#FFFFFF" fill-opacity="0"/>
	<g clip-path="url(#clip7_2357)">
		<path id="Vector" d="M19.25 23.26L19.48 19.43L20.11 18.34C20.11 18.34 18.67 18.94 16.24 18.94C13.82 18.94 12.39 18.36 12.39 18.36L13.1 19.54L13.36 23.26C13.36 23.66 14.67 23.99 16.3 23.99C17.93 23.99 19.25 23.66 19.25 23.26Z" fill="#D34A47" fill-opacity="1.000000" fill-rule="nonzero"/>
		<path id="Vector" d="M18.52 5.36L19 3.45L21.68 0.63L20.98 0.03L18.14 3.03L17.58 5.31C17.17 5.3 16.75 5.29 16.31 5.29C13.32 5.29 10.9 5.63 10.9 6.05C10.9 6.47 13.32 6.81 16.31 6.81C19.3 6.81 21.72 6.47 21.72 6.05C21.72 5.74 20.41 5.48 18.52 5.36Z" fill="#D34A47" fill-opacity="1.000000" fill-rule="nonzero"/>
		<path id="Vector" d="M18.24 6.43C18.24 6.43 18.13 6.45 17.83 6.45C17.52 6.45 17.3 6.45 17.21 6.37C17.19 6.35 17.18 6.31 17.18 6.28C17.18 6.22 17.22 6.19 17.26 6.17L17.31 6.24C17.29 6.25 17.28 6.26 17.28 6.27C17.28 6.31 17.59 6.34 17.84 6.33C18.08 6.33 18.37 6.31 18.37 6.27C18.37 6.26 18.35 6.25 18.31 6.24L18.35 6.17C18.42 6.18 18.47 6.22 18.47 6.29C18.47 6.4 18.33 6.41 18.24 6.43Z" fill="#FFFFFF" fill-opacity="1.000000" fill-rule="nonzero"/>
		<path id="Vector" d="M21.68 0.64C21.75 0.56 21.64 0.36 21.45 0.2C21.26 0.03 21.05 -0.04 20.98 0.03C20.91 0.11 21.01 0.31 21.21 0.48C21.4 0.64 21.61 0.72 21.68 0.64Z" fill="#D34A47" fill-opacity="1.000000" fill-rule="nonzero"/>
		<path id="Vector" d="M19.12 13.9C19.06 13.29 20.46 12.4 20.1 12.38C19.32 12.42 18.94 13.28 18.55 14.18C18.41 14.51 17.92 15.92 17.6 15.75C17.28 15.57 18.01 14.42 18.22 13.73C17.98 13.9 17.11 14.58 16.89 13.95C16.52 14.25 15.75 14.42 15.84 13.61C15.65 13.95 15.22 14.43 14.7 14.23C14.02 13.97 15.09 11.81 15.36 11.92C15.63 12.03 15.31 12.52 15.22 12.71C15.04 13.13 14.82 13.66 14.97 13.77C15.21 13.95 15.88 13.07 15.89 13.05C16.02 12.88 16.37 11.81 16.65 11.93C16.94 12.06 15.94 13.47 16.32 13.76C16.39 13.81 16.7 13.72 16.89 13.52C17.01 13.39 16.97 13.1 17.37 12.14C17.77 11.17 18.13 9.98 18.41 10.07C18.69 10.16 18.46 10.77 18.36 11C17.89 12.08 17.09 13.85 17.47 13.72C17.85 13.59 18.04 13.58 18.42 13.14C18.79 12.71 18.77 11.99 19.02 12.01C19.27 12.02 19.23 12.25 19.17 12.43C19.41 12.15 20.32 11.56 20.54 12.14C20.81 12.83 19.24 13.83 19.63 13.78C20.01 13.73 20.63 13.34 20.89 12.98L21.62 6.47C21.62 6.47 20.89 7.07 16.24 7.07C11.6 7.07 10.94 6.48 10.94 6.48L11.56 12.42C11.89 11.49 12.66 9.61 13.89 9.67C14.45 9.7 15.2 10.78 14.56 10.81C14.29 10.83 14.26 10.28 13.94 10.2C13.71 10.14 13.39 10.33 13.18 10.53C12.77 10.93 11.87 12.53 11.99 13.33C12.14 14.34 13.4 12.98 13.61 12.57C13.76 12.28 13.86 11.43 14.18 11.52C14.51 11.61 14.16 12.49 13.92 13.26C13.65 14.13 13.51 15.05 13.18 14.94C12.85 14.84 13.39 13.71 13.37 13.52C13.06 13.81 12.48 14.54 11.74 14.18L12.12 17.87C12.12 17.87 13.14 18.67 16.22 18.67C19.29 18.67 20.35 17.88 20.35 17.88L20.82 13.6C20.43 13.98 19.2 14.66 19.12 13.9Z" fill="#D34A47" fill-opacity="1.000000" fill-rule="nonzero"/>
	</g>
</svg>
