<svg width="23.999939" height="24.000000" viewBox="0 0 23.9999 24" fill="none" xmlns="http://www.w3.org/2000/svg" xmlns:xlink="http://www.w3.org/1999/xlink">
	<desc>
			Created with Pixso.
	</desc>
	<defs/>
	<path id="Vector" d="M20.78 11.87C19.77 14.23 17.43 15.89 14.7 15.88C11.08 15.87 8.12 12.91 8.11 9.29C8.1 6.56 9.76 4.22 12.12 3.21C12.39 3.09 12.31 2.68 12.01 2.68C12.01 2.68 12 2.68 12 2.68C6.85 2.68 2.68 6.85 2.68 12C2.68 15.92 5.11 19.28 8.55 20.65C8.71 20.72 8.91 20.67 9.01 20.51C9.15 20.28 9.42 20.13 9.71 20.15C10.06 20.17 10.36 20.43 10.43 20.78C10.43 20.81 10.44 20.84 10.44 20.87C10.45 21.06 10.59 21.21 10.78 21.23C11.17 21.29 11.58 21.31 12 21.31C17.14 21.31 21.31 17.14 21.31 12C21.31 11.99 21.31 11.99 21.31 11.98C21.31 11.68 20.9 11.6 20.78 11.87Z" fill="#B3BBE6" fill-opacity="1.000000" fill-rule="nonzero"/>
	<path id="Vector" d="M21.31 11.98C21.31 11.68 20.9 11.6 20.78 11.87C20.62 12.26 20.42 12.62 20.19 12.97C19.72 17.48 16.03 21.03 11.46 21.3C11.64 21.31 11.82 21.31 11.99 21.31C17.14 21.31 21.31 17.14 21.31 12C21.31 11.99 21.31 11.99 21.31 11.98Z" fill="#5165BF" fill-opacity="1.000000" fill-rule="nonzero"/>
	<path id="Vector" d="M11.04 3.21C8.68 4.22 7.03 6.56 7.03 9.29C7.04 12.91 10 15.87 13.62 15.88C13.8 15.88 13.99 15.87 14.17 15.86C10.8 15.58 8.12 12.73 8.11 9.29C8.1 6.56 9.76 4.22 12.12 3.21C12.39 3.09 12.31 2.68 12.01 2.68C12.01 2.68 12 2.68 12 2.68C11.69 2.68 11.38 2.69 11.08 2.72C11.25 2.83 11.26 3.11 11.04 3.21Z" fill="#5165BF" fill-opacity="1.000000" fill-rule="nonzero"/>
	<path id="Vector" d="M18.21 22.52L17.78 22.52L17.78 22.09C17.78 21.9 17.63 21.74 17.43 21.74C17.24 21.74 17.08 21.9 17.08 22.09L17.08 22.52L16.65 22.52C16.46 22.52 16.3 22.67 16.3 22.87C16.3 23.06 16.46 23.22 16.65 23.22L17.08 23.22L17.08 23.64C17.08 23.84 17.24 24 17.43 24C17.63 24 17.78 23.84 17.78 23.64L17.78 23.22L18.21 23.22C18.4 23.22 18.56 23.06 18.56 22.87C18.56 22.67 18.4 22.52 18.21 22.52Z" fill="#B2BBE5" fill-opacity="1.000000" fill-rule="nonzero"/>
	<path id="Vector" d="M6.17 14.32C6.17 14.75 5.82 15.1 5.39 15.1C4.97 15.1 4.62 14.75 4.62 14.32C4.62 13.9 4.97 13.55 5.39 13.55C5.82 13.55 6.17 13.9 6.17 14.32Z" fill="#8796DC" fill-opacity="1.000000" fill-rule="evenodd"/>
	<path id="Vector" d="M6.89 10.92C7.06 11.32 6.87 11.77 6.47 11.94C6.08 12.1 5.62 11.91 5.46 11.52C5.29 11.12 5.48 10.66 5.88 10.5C6.27 10.34 6.73 10.52 6.89 10.92Z" fill="#DFE3F2" fill-opacity="1.000000" fill-rule="evenodd"/>
	<path id="Vector" d="M21.7 17.86C21.51 17.86 21.35 18.01 21.35 18.21L21.35 18.98C21.35 19.18 21.51 19.34 21.7 19.34C21.9 19.34 22.05 19.18 22.05 18.98L22.05 18.21C22.05 18.01 21.9 17.86 21.7 17.86Z" fill="#7E8BC8" fill-opacity="1.000000" fill-rule="nonzero"/>
	<path id="Vector" d="M21.7 20.96C21.51 20.96 21.35 21.12 21.35 21.31L21.35 22.09C21.35 22.28 21.51 22.44 21.7 22.44C21.9 22.44 22.05 22.28 22.05 22.09L22.05 21.31C22.05 21.12 21.9 20.96 21.7 20.96Z" fill="#7E8BC8" fill-opacity="1.000000" fill-rule="nonzero"/>
	<path id="Vector" d="M23.64 19.8L22.87 19.8C22.67 19.8 22.52 19.95 22.52 20.15C22.52 20.34 22.67 20.5 22.87 20.5L23.64 20.5C23.84 20.5 23.99 20.34 23.99 20.15C23.99 19.95 23.84 19.8 23.64 19.8Z" fill="#7E8BC8" fill-opacity="1.000000" fill-rule="nonzero"/>
	<path id="Vector" d="M20.54 19.8L19.76 19.8C19.57 19.8 19.41 19.95 19.41 20.15C19.41 20.34 19.57 20.5 19.76 20.5L20.54 20.5C20.73 20.5 20.89 20.34 20.89 20.15C20.89 19.95 20.73 19.8 20.54 19.8Z" fill="#7E8BC8" fill-opacity="1.000000" fill-rule="nonzero"/>
	<path id="Vector" d="M7.34 0.77L6.91 0.77L6.91 0.35C6.91 0.15 6.75 0 6.56 0C6.36 0 6.21 0.15 6.21 0.35L6.21 0.77L5.78 0.77C5.59 0.77 5.43 0.93 5.43 1.12C5.43 1.32 5.59 1.47 5.78 1.47L6.21 1.47L6.21 1.9C6.21 2.09 6.36 2.25 6.56 2.25C6.75 2.25 6.91 2.09 6.91 1.9L6.91 1.47L7.34 1.47C7.53 1.47 7.69 1.32 7.69 1.12C7.69 0.93 7.53 0.77 7.34 0.77Z" fill="#B2BBE5" fill-opacity="1.000000" fill-rule="nonzero"/>
	<path id="Vector" d="M2.29 1.55C2.09 1.55 1.94 1.71 1.94 1.9L1.94 2.68C1.94 2.87 2.09 3.03 2.29 3.03C2.48 3.03 2.64 2.87 2.64 2.68L2.64 1.9C2.64 1.71 2.48 1.55 2.29 1.55Z" fill="#7E8BC8" fill-opacity="1.000000" fill-rule="nonzero"/>
	<path id="Vector" d="M2.29 4.65C2.09 4.65 1.94 4.81 1.94 5.01L1.94 5.78C1.94 5.98 2.09 6.13 2.29 6.13C2.48 6.13 2.64 5.98 2.64 5.78L2.64 5.01C2.64 4.81 2.48 4.65 2.29 4.65Z" fill="#7E8BC8" fill-opacity="1.000000" fill-rule="nonzero"/>
	<path id="Vector" d="M4.23 3.49L3.45 3.49C3.26 3.49 3.1 3.65 3.1 3.84C3.1 4.04 3.26 4.19 3.45 4.19L4.23 4.19C4.42 4.19 4.58 4.04 4.58 3.84C4.58 3.65 4.42 3.49 4.23 3.49Z" fill="#7E8BC8" fill-opacity="1.000000" fill-rule="nonzero"/>
	<path id="Vector" d="M1.12 3.49L0.35 3.49C0.15 3.49 0 3.65 0 3.84C0 4.04 0.15 4.19 0.35 4.19L1.12 4.19C1.32 4.19 1.47 4.04 1.47 3.84C1.47 3.65 1.32 3.49 1.12 3.49Z" fill="#7E8BC8" fill-opacity="1.000000" fill-rule="nonzero"/>
</svg>
