<svg width="24.000000" height="24.000000" viewBox="0 0 24 24" fill="none" xmlns="http://www.w3.org/2000/svg" xmlns:xlink="http://www.w3.org/1999/xlink">
	<desc>
			Created with Pixso.
	</desc>
	<defs>
		<clipPath id="clip375_8128">
			<rect id="flags / united-states-of-america" width="24.000000" height="24.000000" transform="translate(28.000000 0.000000)" fill="white" fill-opacity="0"/>
		</clipPath>
		<clipPath id="clip375_7448">
			<rect id="flags / russia" width="24.000000" height="24.000000" fill="white" fill-opacity="0"/>
		</clipPath>
	</defs>
	<rect id="flags / russia" width="24.000000" height="24.000000" fill="#FFFFFF" fill-opacity="0"/>
	<g clip-path="url(#clip375_7448)">
		<path id="Vector" d="M24 12C24 18.62 18.62 24 12 24C5.37 24 0 18.62 0 12C0 5.37 5.37 0 12 0C18.62 0 24 5.37 24 12Z" fill="#F0F0F0" fill-opacity="1.000000" fill-rule="evenodd"/>
		<path id="Vector" d="M23.25 16.17C23.73 14.87 24 13.46 24 12C24 10.53 23.73 9.12 23.25 7.82L0.74 7.82C0.26 9.12 0 10.53 0 12C0 13.46 0.26 14.87 0.74 16.17L12 17.21L23.25 16.17Z" fill="#0052B4" fill-opacity="1.000000" fill-rule="nonzero"/>
		<path id="Vector" d="M12 24C17.15 24 21.55 20.74 23.25 16.17L0.74 16.17C2.44 20.74 6.84 24 12 24Z" fill="#D80027" fill-opacity="1.000000" fill-rule="nonzero"/>
	</g>
</svg>
