<svg width="24.000000" height="24.000000" viewBox="0 0 24 24" fill="none" xmlns="http://www.w3.org/2000/svg" xmlns:xlink="http://www.w3.org/1999/xlink">
	<desc>
			Created with Pixso.
	</desc>
	<defs/>
	<rect id="sun 1" width="24.000000" height="24.000000" fill="#FFFFFF" fill-opacity="0"/>
	<path id="Vector" d="M18.21 12C18.21 15.43 15.43 18.21 11.99 18.21C8.56 18.21 5.78 15.43 5.78 12C5.78 8.56 8.56 5.78 11.99 5.78C15.43 5.78 18.21 8.56 18.21 12Z" fill="#FFE07D" fill-opacity="1.000000" fill-rule="evenodd"/>
	<path id="Vector" d="M18.21 12C18.21 15.43 15.43 18.21 11.99 18.21C8.56 18.21 5.78 15.43 5.78 12C5.78 8.56 8.56 5.78 11.99 5.78C15.43 5.78 18.21 8.56 18.21 12Z" fill="#FFE07D" fill-opacity="1.000000" fill-rule="evenodd"/>
	<path id="Vector" d="M12 5.78C11.81 5.78 11.63 5.79 11.46 5.81C14.63 6.08 17.13 8.75 17.13 12C17.13 15.24 14.63 17.91 11.46 18.18C11.63 18.2 11.81 18.21 12 18.21C15.43 18.21 18.21 15.43 18.21 12C18.21 8.56 15.43 5.78 12 5.78Z" fill="#FFD064" fill-opacity="1.000000" fill-rule="nonzero"/>
	<path id="Vector" d="M12 4.58C11.8 4.58 11.64 4.42 11.64 4.23L11.64 0.35C11.64 0.15 11.8 0 12 0C12.19 0 12.35 0.15 12.35 0.35L12.35 4.23C12.35 4.42 12.19 4.58 12 4.58Z" fill="#FFE07D" fill-opacity="1.000000" fill-rule="nonzero"/>
	<path id="Vector" d="M6.5 6.86C6.41 6.86 6.32 6.82 6.26 6.75L3.51 4.01C3.37 3.87 3.37 3.65 3.51 3.51C3.65 3.37 3.87 3.37 4.01 3.51L6.75 6.26C6.89 6.39 6.89 6.62 6.75 6.75C6.68 6.82 6.59 6.86 6.5 6.86Z" fill="#FFE07D" fill-opacity="1.000000" fill-rule="nonzero"/>
	<path id="Vector" d="M4.23 12.35L0.35 12.35C0.15 12.35 0 12.19 0 12C0 11.8 0.15 11.64 0.35 11.64L4.23 11.64C4.42 11.64 4.58 11.8 4.58 12C4.58 12.19 4.42 12.35 4.23 12.35Z" fill="#FFE07D" fill-opacity="1.000000" fill-rule="nonzero"/>
	<path id="Vector" d="M3.76 20.58C3.67 20.58 3.58 20.55 3.51 20.48C3.37 20.34 3.37 20.12 3.51 19.98L6.26 17.24C6.39 17.1 6.62 17.1 6.75 17.24C6.89 17.37 6.89 17.6 6.75 17.73L4.01 20.48C3.94 20.55 3.85 20.58 3.76 20.58Z" fill="#FFE07D" fill-opacity="1.000000" fill-rule="nonzero"/>
	<path id="Vector" d="M12 24C11.8 24 11.64 23.84 11.64 23.64L11.64 19.76C11.64 19.57 11.8 19.41 12 19.41C12.19 19.41 12.35 19.57 12.35 19.76L12.35 23.64C12.35 23.84 12.19 24 12 24Z" fill="#FFE07D" fill-opacity="1.000000" fill-rule="nonzero"/>
	<path id="Vector" d="M20.23 20.58C20.14 20.58 20.05 20.55 19.98 20.48L17.24 17.73C17.1 17.6 17.1 17.37 17.24 17.24C17.37 17.1 17.6 17.1 17.73 17.24L20.48 19.98C20.62 20.12 20.62 20.34 20.48 20.48C20.41 20.55 20.32 20.58 20.23 20.58Z" fill="#FFE07D" fill-opacity="1.000000" fill-rule="nonzero"/>
	<path id="Vector" d="M23.64 12.35L19.76 12.35C19.57 12.35 19.41 12.19 19.41 12C19.41 11.8 19.57 11.64 19.76 11.64L23.64 11.64C23.84 11.64 24 11.8 24 12C24 12.19 23.84 12.35 23.64 12.35Z" fill="#FFE07D" fill-opacity="1.000000" fill-rule="nonzero"/>
	<path id="Vector" d="M17.49 6.86C17.4 6.86 17.31 6.82 17.24 6.75C17.1 6.62 17.1 6.39 17.24 6.26L19.98 3.51C20.12 3.37 20.34 3.37 20.48 3.51C20.62 3.65 20.62 3.87 20.48 4.01L17.73 6.75C17.67 6.82 17.58 6.86 17.49 6.86Z" fill="#FFE07D" fill-opacity="1.000000" fill-rule="nonzero"/>
	<path id="Vector" d="M9.02 5.17C8.89 5.17 8.75 5.09 8.7 4.96L7.96 3.16C7.88 2.98 7.97 2.78 8.15 2.7C8.33 2.63 8.53 2.71 8.61 2.89L9.35 4.69C9.42 4.87 9.34 5.07 9.16 5.15C9.11 5.16 9.07 5.17 9.02 5.17Z" fill="#FFF0AF" fill-opacity="1.000000" fill-rule="nonzero"/>
	<path id="Vector" d="M4.82 9.37C4.78 9.37 4.73 9.37 4.69 9.35L2.89 8.61C2.71 8.53 2.63 8.33 2.7 8.15C2.78 7.97 2.98 7.88 3.16 7.96L4.95 8.7C5.13 8.77 5.22 8.98 5.15 9.16C5.09 9.29 4.96 9.37 4.82 9.37Z" fill="#FFF0AF" fill-opacity="1.000000" fill-rule="nonzero"/>
	<path id="Vector" d="M3.03 16.06C2.89 16.06 2.76 15.98 2.7 15.84C2.63 15.66 2.71 15.46 2.89 15.39L4.69 14.64C4.87 14.57 5.07 14.65 5.15 14.83C5.22 15.01 5.13 15.22 4.95 15.29L3.16 16.03C3.12 16.05 3.07 16.06 3.03 16.06Z" fill="#FFF0AF" fill-opacity="1.000000" fill-rule="nonzero"/>
	<path id="Vector" d="M8.28 21.31C8.24 21.31 8.19 21.31 8.15 21.29C7.97 21.21 7.88 21.01 7.96 20.83L8.7 19.03C8.77 18.86 8.98 18.77 9.16 18.84C9.34 18.92 9.42 19.12 9.35 19.3L8.61 21.1C8.55 21.23 8.42 21.31 8.28 21.31Z" fill="#FFF0AF" fill-opacity="1.000000" fill-rule="nonzero"/>
	<path id="Vector" d="M15.71 21.31C15.57 21.31 15.44 21.23 15.39 21.1L14.64 19.3C14.57 19.12 14.65 18.92 14.83 18.84C15.01 18.77 15.22 18.86 15.29 19.03L16.03 20.83C16.11 21.01 16.02 21.21 15.84 21.29C15.8 21.31 15.75 21.31 15.71 21.31Z" fill="#FFF0AF" fill-opacity="1.000000" fill-rule="nonzero"/>
	<path id="Vector" d="M20.96 16.06C20.92 16.06 20.87 16.05 20.83 16.03L19.03 15.29C18.86 15.22 18.77 15.01 18.84 14.83C18.92 14.65 19.12 14.57 19.3 14.64L21.1 15.39C21.28 15.46 21.36 15.67 21.29 15.84C21.23 15.98 21.1 16.06 20.96 16.06Z" fill="#FFF0AF" fill-opacity="1.000000" fill-rule="nonzero"/>
	<path id="Vector" d="M19.17 9.37C19.03 9.37 18.9 9.29 18.84 9.16C18.77 8.98 18.86 8.77 19.03 8.7L20.83 7.96C21.01 7.88 21.21 7.97 21.29 8.15C21.36 8.33 21.28 8.53 21.1 8.61L19.3 9.35C19.26 9.37 19.21 9.37 19.17 9.37Z" fill="#FFF0AF" fill-opacity="1.000000" fill-rule="nonzero"/>
	<path id="Vector" d="M14.97 5.17C14.92 5.17 14.88 5.16 14.83 5.15C14.65 5.07 14.57 4.87 14.64 4.69L15.39 2.89C15.46 2.71 15.66 2.63 15.84 2.7C16.02 2.78 16.11 2.98 16.03 3.16L15.29 4.96C15.24 5.09 15.1 5.17 14.97 5.17Z" fill="#FFF0AF" fill-opacity="1.000000" fill-rule="nonzero"/>
</svg>
