<svg width="24.000000" height="24.000000" viewBox="0 0 24 24" fill="none" xmlns="http://www.w3.org/2000/svg" xmlns:xlink="http://www.w3.org/1999/xlink">
	<desc>
			Created with Pixso.
	</desc>
	<defs>
		<clipPath id="clip375_8128">
			<rect id="flags / united-states-of-america" width="24.000000" height="24.000000" fill="white" fill-opacity="0"/>
		</clipPath>
	</defs>
	<rect id="flags / united-states-of-america" width="24.000000" height="24.000000" fill="#FFFFFF" fill-opacity="0"/>
	<g clip-path="url(#clip375_8128)">
		<path id="Vector" d="M24 12C24 18.62 18.62 24 12 24C5.37 24 0 18.62 0 12C0 5.37 5.37 0 12 0C18.62 0 24 5.37 24 12Z" fill="#F0F0F0" fill-opacity="1.000000" fill-rule="evenodd"/>
		<path id="Vector" d="M11.47 11.99L23.99 11.99C23.99 10.91 23.85 9.86 23.58 8.86L11.47 8.86L11.47 11.99Z" fill="#D80027" fill-opacity="1.000000" fill-rule="nonzero"/>
		<path id="Vector" d="M11.47 5.73L22.23 5.73C21.5 4.54 20.56 3.48 19.46 2.6L11.47 2.6L11.47 5.73Z" fill="#D80027" fill-opacity="1.000000" fill-rule="nonzero"/>
		<path id="Vector" d="M11.99 23.99C14.82 23.99 17.41 23.02 19.46 21.39L4.52 21.39C6.57 23.02 9.17 23.99 11.99 23.99Z" fill="#D80027" fill-opacity="1.000000" fill-rule="nonzero"/>
		<path id="Vector" d="M1.76 18.26L22.23 18.26C22.82 17.29 23.28 16.24 23.58 15.13L0.41 15.13C0.71 16.24 1.17 17.29 1.76 18.26Z" fill="#D80027" fill-opacity="1.000000" fill-rule="nonzero"/>
		<path id="Vector" d="M5.55 1.87L6.65 1.87L5.63 2.61L6.02 3.8L5 3.06L3.98 3.8L4.32 2.77C3.42 3.52 2.64 4.39 1.99 5.36L2.34 5.36L1.7 5.84C1.59 6 1.5 6.17 1.41 6.35L1.71 7.3L1.14 6.88C0.99 7.18 0.86 7.49 0.74 7.81L1.09 8.86L2.34 8.86L1.33 9.6L1.71 10.79L0.7 10.06L0.09 10.5C0.03 10.99 0 11.49 0 12L12 12C12 5.37 12 4.59 12 0C9.62 0 7.41 0.68 5.55 1.87ZM6.02 10.79L5 10.06L3.98 10.79L4.37 9.6L3.36 8.86L4.61 8.86L5 7.66L5.39 8.86L6.65 8.86L5.63 9.6L6.02 10.79ZM5.63 6.1L6.02 7.3L5 6.56L3.98 7.3L4.37 6.1L3.36 5.36L4.61 5.36L5 4.17L5.39 5.36L6.65 5.36L5.63 6.1ZM10.32 10.79L9.31 10.06L8.29 10.79L8.68 9.6L7.66 8.86L8.92 8.86L9.31 7.66L9.69 8.86L10.95 8.86L9.93 9.6L10.32 10.79ZM9.93 6.1L10.32 7.3L9.31 6.56L8.29 7.3L8.68 6.1L7.66 5.36L8.92 5.36L9.31 4.17L9.69 5.36L10.95 5.36L9.93 6.1ZM9.93 2.61L10.32 3.8L9.31 3.06L8.29 3.8L8.68 2.61L7.66 1.87L8.92 1.87L9.31 0.67L9.69 1.87L10.95 1.87L9.93 2.61Z" fill="#0052B4" fill-opacity="1.000000" fill-rule="nonzero"/>
	</g>
</svg>
