<svg width="24.000000" height="13.691650" viewBox="0 0 24 13.6917" fill="none" xmlns="http://www.w3.org/2000/svg" xmlns:xlink="http://www.w3.org/1999/xlink">
	<desc>
			Created with Pixso.
	</desc>
	<defs/>
	<path id="Vector" d="M11.74 13.63L13.17 13.63C13.17 13.63 13.61 13.58 13.83 13.34C14.03 13.12 14.02 12.71 14.02 12.71C14.02 12.71 14 10.79 14.89 10.5C15.77 10.23 16.9 12.37 18.1 13.19C19.01 13.81 19.69 13.67 19.69 13.67L22.9 13.63C22.9 13.63 24.58 13.53 23.78 12.21C23.72 12.1 23.32 11.23 21.4 9.45C19.39 7.59 19.66 7.89 22.08 4.66C23.55 2.7 24.14 1.5 23.96 0.98C23.78 0.49 22.7 0.62 22.7 0.62L19.09 0.64C19.09 0.64 18.82 0.61 18.62 0.73C18.43 0.84 18.3 1.11 18.3 1.11C18.3 1.11 17.73 2.63 16.97 3.93C15.36 6.66 14.72 6.8 14.46 6.63C13.85 6.24 14 5.04 14 4.2C14 1.55 14.4 0.45 13.22 0.17C12.83 0.07 12.54 0.01 11.54 0C10.25 -0.02 9.16 0 8.54 0.3C8.13 0.51 7.81 0.95 8.01 0.98C8.25 1.01 8.79 1.12 9.07 1.51C9.44 2.02 9.43 3.15 9.43 3.15C9.43 3.15 9.64 6.26 8.93 6.65C8.45 6.91 7.78 6.37 6.35 3.9C5.61 2.63 5.06 1.23 5.06 1.23C5.06 1.23 4.95 0.96 4.76 0.82C4.53 0.65 4.21 0.6 4.21 0.6L0.78 0.62C0.78 0.62 0.26 0.64 0.07 0.86C-0.09 1.06 0.06 1.47 0.06 1.47C0.06 1.47 2.74 7.75 5.78 10.92C8.57 13.82 11.74 13.63 11.74 13.63Z" fill="#3A4459" fill-opacity="1.000000" fill-rule="evenodd"/>
</svg>
